<svg width="70" height="55" viewBox="0 0 70 55" fill="none" xmlns="http://www.w3.org/2000/svg">
<path d="M43.75 42.6797H37.961V23.75C37.961 23.4063 37.6797 23.125 37.336 23.125H32.6485C32.3047 23.125 32.0235 23.4063 32.0235 23.75V42.6797H26.25C25.7266 42.6797 25.4375 43.2813 25.7579 43.6875L34.5079 54.7578C34.5663 54.8325 34.641 54.8929 34.7263 54.9345C34.8116 54.976 34.9052 54.9976 35 54.9976C35.0949 54.9976 35.1885 54.976 35.2738 54.9345C35.3591 54.8929 35.4338 54.8325 35.4922 54.7578L44.2422 43.6875C44.5625 43.2813 44.2735 42.6797 43.75 42.6797V42.6797Z" fill="#ED4C5C"/>
<path d="M58.3906 16.1484C54.8125 6.71094 45.6953 0 35.0156 0C24.3359 0 15.2187 6.70313 11.6406 16.1406C4.94531 17.8984 0 24 0 31.25C0 39.8828 6.99219 46.875 15.6172 46.875H18.75C19.0938 46.875 19.375 46.5938 19.375 46.25V41.5625C19.375 41.2187 19.0938 40.9375 18.75 40.9375H15.6172C12.9844 40.9375 10.5078 39.8906 8.66406 37.9922C6.82812 36.1016 5.85156 33.5547 5.9375 30.9141C6.00781 28.8516 6.71094 26.9141 7.98437 25.2813C9.28906 23.6172 11.1172 22.4062 13.1484 21.8672L16.1094 21.0938L17.1953 18.2344C17.8672 16.4531 18.8047 14.7891 19.9844 13.2812C21.149 11.7868 22.5286 10.473 24.0781 9.38281C27.2891 7.125 31.0703 5.92969 35.0156 5.92969C38.9609 5.92969 42.7422 7.125 45.9531 9.38281C47.5078 10.4766 48.8828 11.7891 50.0469 13.2812C51.2266 14.7891 52.1641 16.4609 52.8359 18.2344L53.9141 21.0859L56.8672 21.8672C61.1016 23.0078 64.0625 26.8594 64.0625 31.25C64.0625 33.8359 63.0547 36.2734 61.2266 38.1016C60.33 39.0033 59.2635 39.7183 58.0888 40.2051C56.914 40.6919 55.6544 40.9408 54.3828 40.9375H51.25C50.9062 40.9375 50.625 41.2187 50.625 41.5625V46.25C50.625 46.5938 50.9062 46.875 51.25 46.875H54.3828C63.0078 46.875 70 39.8828 70 31.25C70 24.0078 65.0703 17.9141 58.3906 16.1484Z" fill="#ED4C5C"/>
</svg>
