<svg width="48" height="55" viewBox="0 0 48 55" fill="none" xmlns="http://www.w3.org/2000/svg">
<path d="M12.6353 27.6695C12.6353 26.2157 11.6253 25.3472 9.84426 25.3472C9.11733 25.3472 8.62569 25.4179 8.36743 25.4868V30.1564C8.67351 30.2253 9.04846 30.2502 9.56305 30.2502C11.4627 30.2502 12.6353 29.2879 12.6353 27.6695Z" fill="#ED4C5C"/>
<path d="M23.6657 25.3931C22.868 25.3931 22.3515 25.4638 22.0454 25.5346V35.8801C22.3515 35.9509 22.8431 35.9509 23.2889 35.9509C26.5256 35.9738 28.6376 34.1909 28.6376 30.4147C28.6625 27.1301 26.738 25.3931 23.6657 25.3931V25.3931Z" fill="#ED4C5C"/>
<path d="M44.7985 19.3155H43.5015V13.0581C43.5004 13.0184 43.4966 12.9787 43.49 12.9395C43.4921 12.6878 43.4031 12.4439 43.2394 12.2527L32.827 0.361555L32.8193 0.353904C32.6871 0.210413 32.5186 0.10532 32.3315 0.0497379L32.2741 0.0306075C32.1947 0.0107908 32.1131 0.000516144 32.0312 0H6.44105C5.27221 0 4.32337 0.950758 4.32337 2.11769V19.3155H3.02636C1.3544 19.3155 0 20.6699 0 22.3419V38.082C0 39.752 1.35631 41.1084 3.02636 41.1084H4.32337V51.8843C4.32337 53.0512 5.27221 54.002 6.44105 54.002H41.3838C42.5508 54.002 43.5015 53.0512 43.5015 51.8843V41.1084H44.7985C46.4705 41.1084 47.8249 39.752 47.8249 38.082V22.3419C47.8249 20.6699 46.4686 19.3155 44.7985 19.3155V19.3155ZM6.44105 2.11769H30.9714V12.9529C30.9714 13.5383 31.4458 14.0108 32.0312 14.0108H41.3857V19.3155H6.44105V2.11769ZM32.4387 30.2961C32.4387 33.3225 31.3368 35.4115 29.8083 36.7008C28.144 38.0839 25.6112 38.742 22.514 38.742C20.6603 38.742 19.348 38.6234 18.4547 38.5086V22.977C19.7689 22.7666 21.481 22.6499 23.2888 22.6499C26.2903 22.6499 28.2377 23.1893 29.7624 24.339C31.4056 25.5576 32.4387 27.505 32.4387 30.2961V30.2961ZM4.82266 38.5794V22.977C5.92455 22.7895 7.47407 22.6499 9.65489 22.6499C11.8606 22.6499 13.4331 23.0726 14.4871 23.9163C15.4953 24.714 16.1744 26.0282 16.1744 27.5758C16.1744 29.1254 15.6598 30.4377 14.7205 31.3291C13.5 32.4788 11.6941 32.9953 9.58219 32.9953C9.11351 32.9953 8.69074 32.9724 8.36362 32.9246V38.5794H4.82266ZM41.3838 51.3104H6.44105V41.1084H41.3838V51.3104ZM44.4523 25.6992H38.3747V29.3128H44.0525V32.2225H38.3747V38.5794H34.7878V22.7666H44.4523V25.6992Z" fill="#ED4C5C"/>
</svg>
