<svg width="48" height="60" viewBox="0 0 48 60" fill="none" xmlns="http://www.w3.org/2000/svg">
<path fill-rule="evenodd" clip-rule="evenodd" d="M24.8209 0.135351L46.7221 7.59902C47.257 7.78594 47.6953 8.39824 47.6824 8.96543V40.0576C47.6824 40.6312 47.315 41.3789 46.8703 41.727L24.6533 59.0391C24.4342 59.2131 24.1377 59.3033 23.8412 59.3033C23.5447 59.3033 23.2547 59.2131 23.0291 59.0391L0.81211 41.727C0.367383 41.3725 0 40.6248 0 40.0576V8.96543C0 8.39824 0.438282 7.77949 0.973243 7.59902L22.8744 0.135351C23.1387 0.0451171 23.4932 0 23.8477 0C24.2021 0 24.5566 0.0451171 24.8209 0.135351ZM23.8477 53.7861L43.0547 38.8201V11.26L23.8477 4.71152L4.64062 11.26V38.8201L23.8477 53.7861Z" fill="#ED4C5C"/>
<path fill-rule="evenodd" clip-rule="evenodd" d="M16.8158 30.7312L11.8207 35.7264C11.7247 35.8233 11.6709 35.9541 11.6709 36.0905C11.6709 36.2269 11.7247 36.3578 11.8207 36.4547L14.0121 38.6461C14.2119 38.8459 14.5406 38.8459 14.7404 38.6461L19.7355 33.651C23.3256 35.9133 28.1209 35.4814 31.2469 32.3555C34.8756 28.7268 34.8756 22.8486 31.2469 19.2199C27.6182 15.5912 21.74 15.5912 18.1113 19.2199C14.9854 22.3459 14.5535 27.1477 16.8158 30.7312ZM28.3271 22.1396C26.3162 20.1223 23.0484 20.1223 21.0311 22.1396C19.0137 24.157 19.0201 27.4184 21.0311 29.4357C23.042 31.4531 26.3098 31.4531 28.3271 29.4357C30.3445 27.4248 30.3445 24.157 28.3271 22.1396Z" fill="#ED4C5C"/>
</svg>
